<svg width="22" height="37" viewBox="0 0 22 37" fill="none" xmlns="http://www.w3.org/2000/svg">
<path d="M17.2195 18.1619C15.4879 19.661 13.3039 20.5378 11.0156 20.6524C8.72733 20.7671 6.46648 20.1131 4.59346 18.7946C2.72045 17.4762 1.34308 15.5692 0.680916 13.3776C0.0187531 11.1861 0.109913 8.83611 0.939865 6.70234C1.76982 4.56857 3.29078 2.77382 5.26032 1.60418C7.22986 0.434532 9.53459 -0.0426766 11.8071 0.248618C14.0797 0.539912 16.1892 1.58294 17.7995 3.21145C19.4097 4.83995 20.428 6.96018 20.6921 9.23418C21.6051 13.8723 21.5948 19.3996 19.5021 24.3529C17.2913 29.5804 12.8314 33.9879 5.21693 35.979C4.97171 36.0456 4.71572 36.063 4.46373 36.0303C4.21174 35.9975 3.96875 35.9151 3.7488 35.7879C3.52885 35.6608 3.33629 35.4913 3.18227 35.2894C3.02824 35.0874 2.91578 34.857 2.8514 34.6114C2.78702 34.3657 2.77199 34.1098 2.80718 33.8584C2.84237 33.6069 2.92708 33.3649 3.05641 33.1463C3.18574 32.9278 3.35714 32.737 3.5607 32.585C3.76425 32.433 3.99594 32.3228 4.24236 32.2608C10.7335 30.5619 14.224 26.9564 15.9577 22.8564C16.583 21.3538 17.0073 19.7754 17.2195 18.1619Z" fill="#DCD4C5"/>
</svg>
